# xmcd CD database file
#
# Track frame offsets:
#	150
#	15001
#	27375
#	41985
#	57829
#	68246
#	89605
#	104562
#	117604
#	134993
#	153374
#	165245
#	179150
#	194521
#	206832
#
# Disc length: 2935 seconds
#
# Revision: 9
# Processed by: cddbd v1.5.2PL0 Copyright (c) Steve Scherf et al.
# Submitted via: ACXtractor (MTCDDB.DLL V2003.12.21)
#
DISCID=e20b750f
DTITLE=Roger Cicero - Maennersachen (Special Edition)
DYEAR=2007
DGENRE=Jazz
TTITLE0=Zieh die Schuh aus 
TTITLE1=Kein Mann fuer eine Frau 
TTITLE2=Kompromisse 
TTITLE3=Ich atme ein
TTITLE4=Schiess mich doch zum Mond (Fly Me To the Moon (In Other Words))
TTITLE5=Wenn sie dich fragt 
TTITLE6=Fachmann in Sachen Anna 
TTITLE7=Ich Idiot liess dich gehen 
TTITLE8=Mein guter Stern auf allen Wegen 
TTITLE9=Murphys Gesetz 
TTITLE10=Schoen dass du da bist 
TTITLE11=Das ganze Leben ist ein Zoo 
TTITLE12=Du willst es doch auch 
TTITLE13=So geil Berlin (Bonustrack)
TTITLE14=Frauen regier'n die Welt (Bonustrack)
EXTD=YEAR: 2007 ID3G:   8
EXTT0=
EXTT1=
EXTT2=
EXTT3=
EXTT4=
EXTT5=
EXTT6=
EXTT7=
EXTT8=
EXTT9=
EXTT10=
EXTT11=
EXTT12=
EXTT13=
EXTT14=
PLAYORDER=
